<svg width="24" height="24" viewBox="0 0 24 24" fill="none" xmlns="http://www.w3.org/2000/svg"><path d="M2.77419 1C1.79433 1 1 1.79433 1 2.77419V7.03226H3.12903V3.12903H20.871V20.871H3.12903V16.9677H1V21.2258C1 22.2057 1.79433 23 2.77419 23H21.2258C22.2057 23 23 22.2057 23 21.2258V2.77419C23 1.79433 22.2057 1 21.2258 1H2.77419ZM7.74193 5.73814H10.2467V9.74573H15.0057C15.6974 9.74573 16.2581 10.3064 16.2581 10.9981V17.0095C16.2581 17.7012 15.6974 18.2619 15.0057 18.2619H7.74193V5.73814ZM10.2467 12.2505V15.7571H13.7533V12.2505H10.2467Z" fill="currentColor"></path></svg>