<svg width="24" height="24" viewBox="0 0 24 24" fill="none" xmlns="http://www.w3.org/2000/svg"><path d="M16.62 19.8572H4.29999C4.29999 21.5929 5.67893 23 7.38001 23H16.62C18.321 23 19.7 21.5929 19.7 19.8572V6.95128C19.7 6.9209 19.6881 6.89178 19.6671 6.87031C19.646 6.84884 19.6175 6.83678 19.5877 6.83678H16.7322C16.7024 6.83678 16.6739 6.84884 16.6528 6.87031C16.6317 6.89178 16.6199 6.9209 16.6199 6.95128L16.62 19.8572ZM16.62 1C18.321 1 19.7 2.40708 19.7 4.14288H7.38001V17.0488C7.38001 17.0792 7.36819 17.1083 7.34715 17.1298C7.32611 17.1513 7.29757 17.1634 7.2678 17.1634H4.41228C4.39753 17.1634 4.38292 17.1604 4.36929 17.1547C4.35566 17.1489 4.34327 17.1405 4.33285 17.1298C4.32242 17.1192 4.31415 17.1065 4.30851 17.0926C4.30287 17.0787 4.29998 17.0638 4.29999 17.0487V4.14288C4.29999 2.40718 5.67893 1 7.38001 1H16.62Z" fill="currentColor"></path></svg>