<svg width="24" height="24" viewBox="0 0 24 24" fill="none" xmlns="http://www.w3.org/2000/svg"><path d="M12 1C5.92468 1 1.00366 6.04649 1.00366 12.2767C1.00366 17.2609 4.15609 21.4836 8.52358 22.9789C9.07036 23.0827 9.27287 22.7366 9.27287 22.432C9.27287 22.162 9.26612 21.4559 9.25937 20.5145C6.20145 21.1929 5.55341 19.0054 5.55341 19.0054C5.05389 17.7039 4.3316 17.3578 4.3316 17.3578C3.33254 16.6586 4.40585 16.6725 4.40585 16.6725C5.50616 16.7556 6.09344 17.8355 6.09344 17.8355C7.07225 19.5592 8.66534 19.0607 9.29312 18.77C9.39437 18.0431 9.67789 17.5447 9.98841 17.2609C7.54477 16.9771 4.97963 16.0079 4.97963 11.6883C4.97963 10.4561 5.40491 9.45235 6.11369 8.66318C5.99894 8.37936 5.62092 7.23023 6.2217 5.6796C6.2217 5.6796 7.1465 5.37501 9.24587 6.83565C10.1234 6.58644 11.0617 6.46184 12 6.45491C12.9316 6.45491 13.8766 6.58644 14.7542 6.83565C16.8535 5.37501 17.7783 5.6796 17.7783 5.6796C18.3791 7.23023 18.0011 8.37936 17.8863 8.66318C18.5884 9.45235 19.0137 10.4561 19.0137 11.6883C19.0137 16.0218 16.4418 16.9702 13.9914 17.254C14.3829 17.6001 14.7407 18.2924 14.7407 19.3446C14.7407 20.8537 14.7272 22.0651 14.7272 22.4389C14.7272 22.7435 14.9229 23.0896 15.4832 22.9789C19.8507 21.4836 22.9964 17.2609 22.9964 12.2836C22.9964 6.04649 18.0754 1 12 1Z" fill="currentColor"></path></svg>