<svg width="32" height="32" viewBox="0 0 32 32" fill="none" xmlns="http://www.w3.org/2000/svg"><path fill-rule="evenodd" clip-rule="evenodd" d="M4.85718 7.74309C4.85718 7.47523 4.99025 7.10714 5.47412 6.65438C5.95799 6.20161 6.72181 5.74366 7.75349 5.33756C9.80995 4.52535 12.7253 4 16 4C19.2748 4 22.1901 4.52535 24.2466 5.33756C25.2783 5.74366 26.0404 6.20161 26.5277 6.65438C27.0116 7.10714 27.1429 7.47523 27.1429 7.74309C27.1429 8.01095 27.0098 8.37903 26.526 8.8318C26.0421 9.28283 25.2783 9.74078 24.2466 10.1486C22.1901 10.9608 19.2748 11.4862 16 11.4862C12.7253 11.4862 9.80995 10.9608 7.75349 10.1486C6.72181 9.74078 5.95972 9.28456 5.47239 8.83007C4.98852 8.37903 4.85718 8.01094 4.85718 7.74136V7.74309ZM27.2535 11.0092C26.5619 11.4756 25.8192 11.8612 25.0398 12.1584C22.6723 13.0916 19.4753 13.6446 16 13.6446C12.5231 13.6446 9.3278 13.0916 6.96029 12.1584C6.18082 11.8607 5.43806 11.4745 4.74658 11.0075V16.4994C4.84336 16.6463 4.97988 16.807 5.1717 16.9816C5.67285 17.4361 6.45914 17.8975 7.52193 18.3053C9.63713 19.1192 12.6354 19.6463 16 19.6463C19.3647 19.6463 22.3629 19.1192 24.4799 18.3053C25.5409 17.8957 26.3272 17.4361 26.8284 16.9816C27.0185 16.807 27.1567 16.6463 27.2535 16.4977V11.0092ZM4.74658 23.1751V19.3474C5.33587 19.7154 6.01156 20.0386 6.74428 20.322C9.16709 21.2535 12.4384 21.8065 16 21.8065C19.5599 21.8065 22.833 21.2535 25.2558 20.3203C25.9508 20.0596 26.6197 19.7338 27.2535 19.3474V23.1768C27.2535 25.8381 22.2161 28 16 28C9.78402 28 4.74658 25.8381 4.74658 23.1751Z" fill="currentColor"></path></svg>