<svg width="32" height="32" viewBox="0 0 32 32" fill="none" xmlns="http://www.w3.org/2000/svg"><path d="M4.559 9.7205L16 15.441L27.441 9.72048L16 4L4.559 9.7205ZM28 10.559L16.5 16.309V27.75L28 22V10.559ZM15.5 27.75V16.309L4 10.559V22L15.5 27.75ZM16 5C16.2761 5 16.5 5.22386 16.5 5.5V5.54435C16.5 5.8205 16.2761 6.04435 16 6.04435C15.7238 6.04435 15.5 5.8205 15.5 5.54435V5.5C15.5 5.22386 15.7238 5 16 5ZM16 7.70565C16.2761 7.70565 16.5 7.9295 16.5 8.20565V8.29435C16.5 8.5705 16.2761 8.79435 16 8.79435C15.7238 8.79435 15.5 8.5705 15.5 8.29435V8.20565C15.5 7.9295 15.7238 7.70565 16 7.70565ZM16 10.4556C16.2761 10.4556 16.5 10.6795 16.5 10.9556V11.0444C16.5 11.3205 16.2761 11.5444 16 11.5444C15.7238 11.5444 15.5 11.3205 15.5 11.0444V10.9556C15.5 10.6795 15.7238 10.4556 16 10.4556ZM16 13.2056C16.2761 13.2056 16.5 13.4295 16.5 13.7056V13.7944C16.5 14.0705 16.2761 14.2944 16 14.2944C15.7238 14.2944 15.5 14.0705 15.5 13.7944V13.7056C15.5 13.4295 15.7238 13.2056 16 13.2056ZM5.50502 21.2474C5.38153 21.0004 5.48164 20.7001 5.72863 20.5766L5.82386 20.529C6.07085 20.4055 6.37119 20.5056 6.49468 20.7526C6.61818 20.9996 6.51807 21.2999 6.27108 21.4234L6.17584 21.471C5.92885 21.5945 5.62851 21.4944 5.50502 21.2474ZM26.4947 21.2474C26.3712 21.4944 26.0709 21.5945 25.8239 21.471L25.7286 21.4234C25.4816 21.2999 25.3815 20.9996 25.505 20.7526C25.6285 20.5056 25.9289 20.4055 26.1758 20.529L26.2711 20.5766C26.5181 20.7001 26.6182 21.0004 26.4947 21.2474ZM7.50502 20.2474C7.38153 20.0004 7.48164 19.7001 7.72863 19.5766L7.82386 19.529C8.07085 19.4055 8.37119 19.5056 8.49468 19.7526C8.61818 19.9996 8.51807 20.2999 8.27108 20.4234L8.17584 20.471C7.92885 20.5945 7.62851 20.4944 7.50502 20.2474ZM24.4947 20.2474C24.3712 20.4944 24.0709 20.5945 23.8239 20.471L23.7286 20.4234C23.4816 20.2999 23.3815 19.9996 23.505 19.7526C23.6285 19.5056 23.9289 19.4055 24.1758 19.529L24.2711 19.5766C24.5181 19.7001 24.6182 20.0004 24.4947 20.2474ZM9.50502 19.2474C9.38153 19.0004 9.48164 18.7001 9.72863 18.5766L9.82386 18.529C10.0709 18.4055 10.3712 18.5056 10.4947 18.7526C10.6182 18.9996 10.5181 19.2999 10.2711 19.4234L10.1758 19.471C9.92885 19.5945 9.62851 19.4944 9.50502 19.2474ZM22.4947 19.2474C22.3712 19.4944 22.0709 19.5945 21.8239 19.471L21.7286 19.4234C21.4816 19.2999 21.3815 18.9996 21.505 18.7526C21.6285 18.5056 21.9289 18.4055 22.1758 18.529L22.2711 18.5766C22.5181 18.7001 22.6182 19.0004 22.4947 19.2474ZM11.505 18.2474C11.3815 18.0004 11.4816 17.7001 11.7286 17.5766L11.8239 17.529C12.0709 17.4055 12.3712 17.5056 12.4947 17.7526C12.6182 17.9996 12.5181 18.2999 12.2711 18.4234L12.1758 18.471C11.9289 18.5945 11.6285 18.4944 11.505 18.2474ZM20.4947 18.2474C20.3712 18.4944 20.0709 18.5945 19.8239 18.471L19.7286 18.4234C19.4816 18.2999 19.3815 17.9996 19.505 17.7526C19.6285 17.5056 19.9289 17.4055 20.1758 17.529L20.2711 17.5766C20.5181 17.7001 20.6182 18.0004 20.4947 18.2474ZM13.505 17.2474C13.3815 17.0004 13.4816 16.7001 13.7286 16.5766L13.8239 16.529C14.0709 16.4055 14.3712 16.5056 14.4947 16.7526C14.6182 16.9996 14.5181 17.2999 14.2711 17.4234L14.1758 17.471C13.9289 17.5945 13.6285 17.4944 13.505 17.2474ZM18.4947 17.2474C18.3712 17.4944 18.0709 17.5945 17.8239 17.471L17.7286 17.4234C17.4816 17.2999 17.3815 16.9996 17.505 16.7526C17.6285 16.5056 17.9289 16.4055 18.1758 16.529L18.2711 16.5766C18.5181 16.7001 18.6182 17.0004 18.4947 17.2474Z" fill="currentColor"></path></svg>