<svg width="32" height="32" viewBox="0 0 32 32" fill="none" xmlns="http://www.w3.org/2000/svg"><path fill-rule="evenodd" d="M16 4L6.57143 8.28571L4 19.4286L10.8571 28H21.1429L28 19.4286L25.4286 8.28571L16 4ZM15.4919 8V9.99036C13.9282 10.1136 12.5335 10.8391 11.5228 11.9381L10.0112 10.6805L9.37162 11.4493L10.9065 12.7262C10.2433 13.7296 9.85669 14.9396 9.85669 16.2389C9.85669 16.5651 9.88106 16.8857 9.92805 17.1987L7.98022 17.6292L8.19601 18.6056L10.1536 18.173C10.6253 19.6645 11.6279 20.9142 12.9361 21.6823L12.0355 23.6159L12.942 24.0381L13.8376 22.1154C14.5002 22.368 15.2178 22.5062 15.9679 22.5062C16.7385 22.5062 17.4748 22.3603 18.1524 22.0944L19.0577 24.0381L19.9642 23.6159L19.0497 21.6526C20.3373 20.8799 21.3224 19.6381 21.7864 18.1598L23.8038 18.6056L24.0196 17.6292L22.0098 17.185C22.0555 16.8763 22.0791 16.5604 22.0791 16.2389C22.0791 14.9534 21.7006 13.7553 21.0503 12.7581L22.6206 11.4489L21.9802 10.6808L20.4386 11.9661C19.4362 10.8627 18.0494 10.1297 16.4919 9.99434V8H15.4919ZM12.2926 12.5785C13.1201 11.697 14.2428 11.1135 15.4919 10.9943V12.4809C14.6915 12.5965 13.9761 12.9733 13.4273 13.5225L12.2926 12.5785ZM12.8193 14.3175L11.6803 13.3699C11.1598 14.1939 10.8567 15.1784 10.8567 16.2389C10.8567 16.4914 10.8739 16.7396 10.9071 16.9824L12.333 16.6672C12.3175 16.5266 12.3096 16.3836 12.3096 16.2389C12.3096 15.5398 12.495 14.8824 12.8193 14.3175ZM12.5703 17.6389L11.1341 17.9563C11.5317 19.1456 12.3306 20.1393 13.3611 20.77L13.9905 19.4187C13.3536 18.992 12.854 18.3703 12.5703 17.6389ZM14.8897 19.8565L14.2616 21.2051C14.7959 21.4001 15.3704 21.5062 15.9679 21.5062C16.5858 21.5062 17.1791 21.3928 17.7287 21.1848L17.1142 19.8655C16.7677 19.9753 16.399 20.0345 16.016 20.0345C15.6226 20.0345 15.2444 19.9721 14.8897 19.8565ZM18.0168 19.435L18.6243 20.7393C19.6346 20.1049 20.4164 19.1191 20.8061 17.9431L19.4591 17.6455C19.1713 18.3834 18.6636 19.0092 18.0168 19.435ZM19.6982 16.6742L21.0306 16.9686C21.0626 16.7303 21.0791 16.4867 21.0791 16.2389C21.0791 15.1927 20.7841 14.2204 20.2764 13.4033L19.202 14.2991C19.5329 14.8681 19.7224 15.5322 19.7224 16.2389C19.7224 16.386 19.7142 16.5313 19.6982 16.6742ZM18.5897 13.5076L19.6698 12.6071C18.8504 11.721 17.7352 11.1299 16.4919 10.9991V12.4742C17.3045 12.5806 18.0319 12.9556 18.5897 13.5076ZM13.3096 16.2389C13.3096 14.682 14.5341 13.4434 16.016 13.4434C17.4979 13.4434 18.7224 14.682 18.7224 16.2389C18.7224 17.7959 17.4979 19.0345 16.016 19.0345C14.5341 19.0345 13.3096 17.7959 13.3096 16.2389Z" fill="currentColor"></path></svg>