<svg width="32" height="32" viewBox="0 0 32 32" fill="none" xmlns="http://www.w3.org/2000/svg"><path fill-rule="evenodd" d="M13 7H17L18 8H12L13 7ZM30 10V19L27 18H26L24 21L20 21V22H23L24 23L23 24H7L6 23L7 22L10 22V21H5L4 18L2 18V17H26V16L2 16V15L4 15V14L8 11H11V9H19V11H22L26 13H27L30 10ZM14 13C14 13.5523 13.5523 14 13 14C12.4477 14 12 13.5523 12 13C12 12.4477 12.4477 12 13 12C13.5523 12 14 12.4477 14 13ZM17 14C17.5523 14 18 13.5523 18 13C18 12.4477 17.5523 12 17 12C16.4477 12 16 12.4477 16 13C16 13.5523 16.4477 14 17 14ZM12 21V22H18V21H12Z" fill="currentColor"></path></svg>