<svg xmlns="http://www.w3.org/2000/svg" width="32" height="32" viewBox="0 0 32 32" fill="none"><path d="M16.0178 24.3092V29.3437C24.521 29.3437 31.1381 21.1278 28.3553 12.2015C27.1184 8.30982 24.0263 5.19025 20.1303 3.98567C11.225 1.20586 3 7.84651 3 16.3404H8.04013C8.04013 11.0279 13.3276 6.88903 18.9553 8.92755C21.027 9.66883 22.6967 11.3367 23.4388 13.4061C25.4796 19.0275 21.3671 24.3092 16.0178 24.3092ZM14.1637 22.5426C13.8421 23.0222 13.6275 23.6738 13.3866 24.9014C13.3274 25.2033 13.3224 25.2202 13.3109 25.1585C13.0548 23.7808 12.8231 23.0454 12.4869 22.5431C11.9982 21.8131 11.2922 21.4692 9.57527 21.1249C9.34915 21.0796 9.16248 21.0408 9.16044 21.0388C9.15841 21.0367 9.25418 21.017 9.37326 20.9949C9.64485 20.9445 10.1213 20.8404 10.3876 20.7734C11.0101 20.6166 11.4795 20.4281 11.8378 20.191C12.0546 20.0475 12.3283 19.775 12.4709 19.5605C12.8275 19.0243 13.0697 18.2575 13.3178 16.879C13.3207 16.8628 13.3413 16.9455 13.3636 17.0627C13.7214 18.9439 14.0725 19.6966 14.8278 20.2022C15.3309 20.539 16.0707 20.7721 17.4431 21.0263C17.506 21.0379 17.4972 21.0409 17.2595 21.0872C15.9785 21.3368 15.3128 21.5535 14.8273 21.879C14.5411 22.0709 14.3556 22.2564 14.1637 22.5426ZM9.93968 27.355C9.69594 27.7186 9.53321 28.2125 9.35061 29.1431C9.3057 29.372 9.30192 29.3848 9.29322 29.338C9.09908 28.2936 8.92344 27.7361 8.66856 27.3554C8.29813 26.802 7.76289 26.5413 6.46134 26.2802C6.28993 26.2459 6.14687 26.2149 6.14687 26.2149C6.14687 26.2149 6.21793 26.1984 6.3082 26.1817C6.51408 26.1435 6.87524 26.0646 7.07711 26.0138C7.54902 25.8949 7.90486 25.752 8.1765 25.5723C8.34088 25.4635 8.54832 25.2569 8.65648 25.0943C8.92675 24.6879 9.11036 24.1065 9.29846 23.0615C9.30067 23.0493 9.3163 23.1119 9.33319 23.2008C9.60444 24.6269 9.87057 25.1975 10.4431 25.5808C10.8246 25.8361 11.3853 26.0128 12.4258 26.2055C12.4735 26.2143 12.4667 26.2165 12.2865 26.2517C11.3155 26.4409 10.8109 26.6051 10.4428 26.8519C10.2258 26.9974 10.0852 27.138 9.93968 27.355ZM5.90659 23.9749C6.03928 23.2988 6.15752 22.9398 6.33464 22.6756C6.44035 22.518 6.54254 22.4158 6.7002 22.3101C6.96767 22.1308 7.33436 22.0114 8.03996 21.8739C8.1709 21.8484 8.17579 21.8468 8.14113 21.8403C7.38512 21.7003 6.97764 21.5719 6.70047 21.3864C6.28441 21.1079 6.09103 20.6933 5.89393 19.657C5.88165 19.5924 5.8703 19.5469 5.8687 19.5558C5.73201 20.3151 5.59859 20.7376 5.4022 21.0329C5.32361 21.1511 5.17287 21.3012 5.05343 21.3802C4.85604 21.5108 4.59747 21.6147 4.25456 21.701C4.10787 21.738 3.84544 21.7953 3.69583 21.823C3.63023 21.8352 3.57748 21.8461 3.5786 21.8472C3.57972 21.8483 3.68255 21.8697 3.80711 21.8947C4.75287 22.0843 5.14181 22.2738 5.41098 22.6759C5.59618 22.9526 5.72381 23.3577 5.86488 24.1166C5.8712 24.1506 5.87396 24.1413 5.90659 23.9749Z" fill="currentColor"></path></svg>