<svg width="24" height="24" viewBox="0 0 24 24" fill="none" xmlns="http://www.w3.org/2000/svg"><path d="M21.376 1H2.62403C1.72722 1 1 1.72722 1 2.62403V21.376C1 22.2728 1.72722 23 2.62403 23H21.376C22.2728 23 23 22.2728 23 21.376V2.62403C23 1.72722 22.2728 1 21.376 1ZM7.55722 19.7428H4.24958V9.23472H7.55722V19.7428ZM5.90417 7.78028C4.85153 7.78028 3.9975 6.97819 3.9975 5.88125C3.9975 4.78431 4.85153 3.98222 5.90417 3.98222C6.95681 3.98222 7.81083 4.78431 7.81083 5.88125C7.81083 6.97819 6.95681 7.78028 5.90417 7.78028ZM19.7504 19.7504H16.4428V14.0121C16.4428 12.3193 15.7232 11.7968 14.7943 11.7968C13.8135 11.7968 12.851 12.5347 12.851 14.0549V19.7519H9.54333V9.24236H12.7242V10.6983H12.7669C13.0862 10.0521 14.2046 8.9475 15.9111 8.9475C17.7567 8.9475 19.7504 10.0429 19.7504 13.2513V19.7504Z" fill="currentColor"></path></svg>