<?xml version="1.0" encoding="utf-8"?>
<svg xmlns="http://www.w3.org/2000/svg" fill="none" height="328" viewBox="0 0 1088 328" width="1088">
<g clip-path="url(#clip0_2080_1401)">
<path d="M92.0765 142.982C92.0765 142.982 133.287 77.2358 198.785 212.592C198.785 212.592 225.632 159.721 302.334 262.945C220.914 141.739 192.941 196.824 192.941 196.824C132.517 71.9499 94.498 132.602 94.498 132.602C68.6997 31.2757 13.7057 35.4083 13.7057 35.4083L14.3212 38.6598C32.4258 42.5795 71.1293 60.7099 92.0765 142.982Z" fill="white"/>
<path d="M63.9444 147.587C65.9812 149.013 189.547 238.924 189.547 238.924L307.682 271.035C305.876 268.252 304.094 265.562 302.337 262.945C225.634 159.721 198.787 212.592 198.787 212.592C133.289 77.2359 92.0792 142.982 92.0792 142.982C71.132 60.71 32.4284 42.5797 14.3239 38.6599L26.6055 103.346C26.6055 103.346 61.9116 146.161 63.9485 147.587H63.9444Z" fill="url(#paint0_linear_2080_1401)"/>
<path d="M1087.99 165.317V159.644C1028.99 135.836 991.875 95.1237 970.826 64.4084C990.547 95.0897 1027.4 138.926 1087.99 165.317Z" fill="#7ADCFD"/>
<path d="M952.257 29.6458C952.257 29.6458 951.933 30.0373 951.301 30.7779C954.731 38.0385 961.044 50.1424 970.819 64.4084C957.808 44.1628 952.253 29.6458 952.253 29.6458H952.257Z" fill="#7ADCFD"/>
<path d="M1088 356.942V165.317C1027.39 138.93 990.544 95.0941 970.828 64.4086C961.053 50.1427 954.74 38.0345 951.31 30.7781C936.486 48.1466 748.094 261.591 406.747 304.747V356.942H1088Z" fill="url(#paint1_linear_2080_1401)"/>
<path d="M1087.99 159.644V96.9196C1087.99 96.9196 1018.85 87.954 949.625 24.6211C949.625 24.6211 984.153 117.744 1087.99 159.644Z" fill="white"/>
<path d="M1087.99 97.941C1087.99 97.941 1041.42 95.83 983.125 61.4036C983.125 61.4036 1021.84 126.754 1087.99 159.648V97.9452V97.941Z" fill="url(#paint2_linear_2080_1401)"/>
<path d="M856.109 216.095C856.109 216.095 1035.4 52.181 729.624 229.003L530.684 326.954L529.453 335.479C562.633 335.615 595.813 336.173 628.99 336.777C662.453 337.386 695.917 338.13 729.381 338.518C761.731 338.892 794.122 338.769 826.415 341.156C846.929 342.672 867.613 345.046 887.803 349.562L1057.5 340.254L1079.61 182.545C1079.61 182.545 1061.19 87.0331 856.109 216.104V216.095Z" fill="url(#paint3_linear_2080_1401)"/>
<g filter="url(#filter0_d_2080_1401)">
<path d="M868.407 181.469C868.05 180.839 867.35 180.426 866.536 180.618C764.327 204.762 697.006 289.519 697.006 289.519L752.454 310.203L754.543 309.092L706.721 291.251C706.721 291.251 770.311 211.192 868.403 181.469H868.407Z" fill="url(#paint4_linear_2080_1401)"/>
</g>
<path d="M868.292 183.52C868.778 182.86 868.749 182.064 868.409 181.464C770.318 211.188 706.727 291.247 706.727 291.247L754.55 309.088L831.386 268.218C836.679 229.301 859.885 194.917 868.292 183.52Z" fill="url(#paint5_linear_2080_1401)"/>
<g filter="url(#filter1_d_2080_1401)">
<path d="M661.342 295.805C661.342 295.805 743.223 230.565 707.127 280.535C707.127 280.535 782.846 233.804 759.955 269.431C759.955 269.431 840.517 222.236 826.87 253.237C826.87 253.237 881.018 229.637 866.489 249.074L856.989 260.625C805.879 285.812 742.81 295.273 661.342 300.674V295.805Z" fill="white"/>
</g>
<path d="M728.841 251.96C732.915 249.192 735.513 245.802 734.643 244.389C733.774 242.976 729.767 244.074 725.693 246.841C721.62 249.609 719.022 252.999 719.891 254.412C720.761 255.825 724.768 254.727 728.841 251.96Z" fill="url(#paint6_linear_2080_1401)"/>
<path d="M850.619 237.894C852.897 236.347 854.35 234.452 853.864 233.662C853.379 232.873 851.138 233.487 848.86 235.035C846.582 236.583 845.129 238.478 845.614 239.267C846.1 240.057 848.341 239.442 850.619 237.894Z" fill="url(#paint7_linear_2080_1401)"/>
<path d="M822.927 219.418C825.205 217.87 826.658 215.975 826.172 215.185C825.687 214.396 823.446 215.01 821.168 216.558C818.89 218.106 817.437 220.001 817.922 220.791C818.408 221.58 820.648 220.965 822.927 219.418Z" fill="white"/>
<path d="M881.37 224.96C884.015 223.163 885.702 220.964 885.139 220.048C884.575 219.132 881.975 219.846 879.33 221.643C876.686 223.44 874.999 225.639 875.562 226.555C876.126 227.471 878.726 226.757 881.37 224.96Z" fill="white"/>
<path d="M886.199 240.124C890.057 237.503 892.517 234.294 891.694 232.955C890.87 231.617 887.076 232.657 883.218 235.278C879.36 237.899 876.9 241.108 877.724 242.447C878.547 243.785 882.341 242.745 886.199 240.124Z" fill="url(#paint8_linear_2080_1401)"/>
<path d="M1087.99 151.89C849.931 328.269 455.031 300.661 455.031 300.661C451.274 300.363 447.556 300.023 443.855 299.665C642.253 266.962 785.348 177.549 868.695 110.513L868.675 110.535C868.675 110.535 921.15 67.2135 953.497 30.7907C951.122 27.2503 949.624 24.6212 949.624 24.6212C949.624 24.6212 822.974 175.391 584.566 254.705C385.055 321.077 167.031 249.015 40.6792 73.6865C14.071 36.7618 0.598877 8 0.598877 8L2.40488 356.946H1087.99V151.89Z" fill="white"/>
<path d="M669.983 304.24C669.983 304.24 391 336.522 237.234 257.238C92.2317 182.469 21.2509 76.2189 21.2509 76.2189C21.2509 76.2189 8.18371 62.4977 0 50.2278L0.206516 356.942H1088V159.644C1088 159.644 946.84 274.185 669.983 304.24Z" fill="url(#paint9_linear_2080_1401)"/>
<path d="M723.595 356.942C723.595 356.942 988.276 299.355 1087.99 174.766V356.942H723.595Z" fill="url(#paint10_linear_2080_1401)"/>
<path d="M459.002 356.942C342.588 324.082 106.504 243.976 0.208496 111.16V356.942H459.002Z" fill="url(#paint11_linear_2080_1401)"/>
<path d="M0.208496 196.824C0.208496 196.824 19.9936 211.796 47.0593 227.867C57.624 234.14 68.7233 239.869 80.2801 245.023L107.629 257.225C107.629 257.225 280.354 335.334 420.736 356.942H0.208496V196.824Z" fill="url(#paint12_linear_2080_1401)"/>
<path d="M196.637 165.74C198.885 165.113 199.292 158.999 197.547 152.083C195.801 145.168 192.563 140.069 190.315 140.696C188.067 141.323 187.66 147.438 189.406 154.353C191.152 161.269 194.389 166.367 196.637 165.74Z" fill="#7ADCFD"/>
<path d="M106.428 108.756C109.331 107.946 109.855 100.044 107.599 91.1068C105.343 82.1691 101.16 75.5801 98.2574 76.3896C95.3543 77.1992 94.8301 85.1008 97.0864 94.0385C99.3427 102.976 103.525 109.565 106.428 108.756Z" fill="#7ADCFD"/>
<path d="M113.661 81.906C115.381 81.4261 115.692 76.7422 114.354 71.4442C113.017 66.1462 110.538 62.2402 108.817 62.7201C107.097 63.1999 106.786 67.8838 108.124 73.1818C109.461 78.4799 111.94 82.3858 113.661 81.906Z" fill="white"/>
<path d="M1088 276.687C1088.01 216.648 1005.18 310.203 1005.18 310.203C1044.22 213.457 862.076 356.946 862.076 356.946H969.72C998.195 335.662 1059.47 292.047 1087.99 288.468V276.692L1088 276.687Z" fill="url(#paint13_linear_2080_1401)"/>
<path d="M1088 288.464C1059.47 292.047 998.202 335.658 969.727 356.942H1088V288.464Z" fill="url(#paint14_linear_2080_1401)"/>
<path d="M272.428 356.746C62.1982 216.674 66.1219 279.539 85.7126 327.197C60.6958 313.348 29.6496 297.269 0.174438 285.012V313.442C0.340461 313.489 0.502435 313.535 0.668458 313.582C0.972158 313.667 1.27586 313.757 1.58361 313.846C1.78607 313.906 1.99259 313.965 2.19506 314.025C2.51091 314.118 2.82675 314.212 3.1426 314.306C3.34102 314.365 3.53944 314.425 3.73785 314.484C4.05775 314.582 4.37765 314.68 4.69755 314.778C4.89597 314.838 5.09033 314.897 5.28875 314.957C5.6127 315.055 5.93665 315.157 6.26059 315.259C6.45901 315.319 6.65338 315.382 6.8518 315.442C7.18384 315.548 7.51994 315.655 7.85198 315.761C8.0423 315.821 8.22857 315.88 8.41889 315.944C8.75903 316.055 9.10323 316.166 9.44742 316.276C9.62964 316.336 9.81591 316.395 9.99813 316.455C10.3464 316.57 10.6946 316.685 11.0429 316.8C11.2251 316.859 11.4073 316.919 11.5895 316.983C11.9459 317.102 12.3063 317.225 12.6626 317.345C12.8367 317.404 13.0108 317.464 13.185 317.519C13.5534 317.647 13.926 317.774 14.2985 317.902C14.4646 317.957 14.6265 318.013 14.7925 318.072C15.1691 318.204 15.5457 318.336 15.9223 318.468C16.0843 318.523 16.2463 318.583 16.4082 318.638C16.7929 318.774 17.1776 318.911 17.5623 319.047C17.7162 319.102 17.8741 319.158 18.028 319.213C18.4208 319.353 18.8176 319.498 19.2104 319.638C19.3602 319.694 19.506 319.745 19.6558 319.8C20.0526 319.945 20.4495 320.09 20.8463 320.234C20.9961 320.29 21.15 320.345 21.2998 320.4C21.7048 320.549 22.1137 320.702 22.5227 320.856C22.6604 320.907 22.8021 320.958 22.9398 321.013C23.3528 321.166 23.7659 321.324 24.183 321.481C24.3206 321.532 24.4583 321.583 24.596 321.639C25.0212 321.8 25.4464 321.962 25.8715 322.124C25.9971 322.171 26.1226 322.222 26.2481 322.269C26.6854 322.439 27.1268 322.609 27.5682 322.779C27.6816 322.822 27.795 322.869 27.9083 322.911C28.3578 323.086 28.8073 323.26 29.2568 323.439C29.3621 323.482 29.4714 323.524 29.5767 323.567C30.0302 323.745 30.4878 323.928 30.9413 324.107C31.0425 324.15 31.1478 324.188 31.2491 324.231C31.7107 324.414 32.1723 324.601 32.6339 324.788C32.7311 324.826 32.8283 324.865 32.9255 324.907C33.3993 325.099 33.873 325.29 34.3468 325.482C34.4318 325.516 34.5169 325.55 34.606 325.588C35.0878 325.784 35.5697 325.984 36.0516 326.18C36.1326 326.214 36.2135 326.244 36.2945 326.278C36.7845 326.478 37.2745 326.682 37.7685 326.886C37.8414 326.916 37.9143 326.946 37.9831 326.976C38.4852 327.184 38.9833 327.393 39.4854 327.606C39.5502 327.631 39.615 327.661 39.6757 327.686C40.1819 327.899 40.6881 328.112 41.1942 328.329C41.255 328.355 41.3117 328.38 41.3724 328.406C41.8907 328.627 42.4131 328.848 42.9314 329.07C42.9759 329.087 43.0205 329.108 43.065 329.125C43.5955 329.351 44.1219 329.58 44.6524 329.81C44.6888 329.827 44.7293 329.844 44.7657 329.861C45.3084 330.095 45.851 330.329 46.3936 330.568C46.4179 330.576 46.4422 330.589 46.4665 330.598C47.0131 330.836 47.5638 331.078 48.1105 331.317C48.1307 331.325 48.155 331.334 48.1753 331.347C66.0045 339.19 84.0767 348.179 100.667 356.933H136.601C136.601 356.933 136.524 356.882 136.382 356.797L272.411 356.755L272.428 356.746Z" fill="url(#paint15_linear_2080_1401)"/>
<path d="M100.305 356.797C100.285 356.763 100.265 356.729 100.249 356.695C83.776 348.013 65.8658 339.114 48.1904 331.338C48.1702 331.329 48.1459 331.321 48.1256 331.308C47.579 331.066 47.0282 330.827 46.4816 330.589C46.4573 330.58 46.433 330.568 46.4087 330.559C45.8661 330.321 45.3235 330.087 44.7809 329.853C44.7444 329.836 44.7039 329.819 44.6675 329.802C44.137 329.572 43.6066 329.346 43.0801 329.116C43.0356 329.099 42.9911 329.078 42.9465 329.061C42.4242 328.84 41.9058 328.614 41.3875 328.397C41.3268 328.372 41.2701 328.346 41.2094 328.32C40.7032 328.103 40.197 327.891 39.6908 327.678C39.6261 327.652 39.5613 327.622 39.5005 327.597C38.9984 327.388 38.5003 327.176 37.9982 326.967C37.9253 326.937 37.8525 326.907 37.7836 326.878C37.2936 326.673 36.7996 326.469 36.3097 326.269C36.2287 326.235 36.1477 326.205 36.0667 326.171C35.5848 325.971 35.103 325.775 34.6211 325.58C34.536 325.546 34.451 325.512 34.3619 325.473C33.8882 325.282 33.4144 325.086 32.9406 324.899C32.8434 324.86 32.7462 324.822 32.6491 324.78C32.1874 324.592 31.7258 324.409 31.2642 324.222C31.1629 324.179 31.0577 324.141 30.9564 324.099C30.4989 323.916 30.0453 323.737 29.5918 323.558C29.4865 323.515 29.3772 323.473 29.2719 323.43C28.8224 323.252 28.373 323.077 27.9235 322.903C27.8101 322.86 27.6967 322.813 27.5833 322.771C27.142 322.6 26.7046 322.43 26.2633 322.26C26.1377 322.213 26.0122 322.162 25.8867 322.115C25.4615 321.954 25.0363 321.788 24.6111 321.63C24.4734 321.579 24.3358 321.528 24.1981 321.473C23.7851 321.315 23.368 321.162 22.9549 321.004C22.8173 320.953 22.6755 320.902 22.5379 320.847C22.1289 320.694 21.7239 320.545 21.315 320.392C21.1651 320.336 21.0113 320.281 20.8614 320.226C20.4646 320.081 20.0678 319.936 19.6709 319.792C19.5211 319.736 19.3753 319.685 19.2255 319.63C18.8287 319.485 18.4359 319.345 18.0431 319.204C17.8852 319.149 17.7313 319.094 17.5774 319.038C17.1927 318.902 16.8081 318.766 16.4234 318.63C16.2614 318.574 16.0994 318.515 15.9374 318.459C15.5609 318.327 15.1843 318.196 14.8077 318.064C14.6417 318.008 14.4797 317.949 14.3137 317.893C13.9411 317.766 13.5726 317.638 13.2001 317.51C13.026 317.451 12.8518 317.391 12.6777 317.336C12.3173 317.217 11.961 317.093 11.6047 316.974C11.4224 316.915 11.2402 316.855 11.058 316.791C10.7098 316.676 10.3615 316.561 10.0133 316.446C9.827 316.387 9.64478 316.327 9.46256 316.268C9.11836 316.157 8.77417 316.042 8.43402 315.936C8.24371 315.876 8.05339 315.816 7.86712 315.753C7.53507 315.646 7.19898 315.54 6.86693 315.433C6.66851 315.37 6.47414 315.31 6.27573 315.25C5.95178 315.148 5.62783 315.046 5.30389 314.948C5.10547 314.889 4.90705 314.829 4.71268 314.769C4.39279 314.672 4.07289 314.574 3.75299 314.476C3.55457 314.416 3.35616 314.357 3.15774 314.297C2.84189 314.203 2.52604 314.11 2.21019 314.016C2.00368 313.957 1.80121 313.897 1.59874 313.837C1.29504 313.748 0.987294 313.659 0.683594 313.574C0.517571 313.527 0.355598 313.48 0.189575 313.433V356.929L100.698 356.912C100.617 356.869 100.54 356.827 100.459 356.789H100.322L100.305 356.797Z" fill="url(#paint16_linear_2080_1401)"/>
<path d="M26.2625 322.264C26.6998 322.435 27.1412 322.605 27.5825 322.775C27.1412 322.605 26.7038 322.435 26.2625 322.264Z" fill="white"/>
<path d="M26.2625 322.264C26.6998 322.435 27.1412 322.605 27.5825 322.775C27.1412 322.605 26.7038 322.435 26.2625 322.264Z" fill="url(#paint17_linear_2080_1401)"/>
<path d="M27.9192 322.907C28.3687 323.081 28.8181 323.256 29.2676 323.435C28.8181 323.256 28.3687 323.081 27.9192 322.907Z" fill="white"/>
<path d="M27.9192 322.907C28.3687 323.081 28.8181 323.256 29.2676 323.435C28.8181 323.256 28.3687 323.081 27.9192 322.907Z" fill="url(#paint18_linear_2080_1401)"/>
<path d="M29.5912 323.562C30.0447 323.741 30.5023 323.924 30.9558 324.103C30.4982 323.92 30.0447 323.741 29.5912 323.562Z" fill="white"/>
<path d="M29.5912 323.562C30.0447 323.741 30.5023 323.924 30.9558 324.103C30.4982 323.92 30.0447 323.741 29.5912 323.562Z" fill="url(#paint19_linear_2080_1401)"/>
<path d="M24.6133 321.635C25.0385 321.796 25.4636 321.958 25.8888 322.12C25.4636 321.958 25.0385 321.792 24.6133 321.635Z" fill="white"/>
<path d="M24.6133 321.635C25.0385 321.796 25.4636 321.958 25.8888 322.12C25.4636 321.958 25.0385 321.792 24.6133 321.635Z" fill="url(#paint20_linear_2080_1401)"/>
<path d="M21.3148 320.4C21.7198 320.549 22.1287 320.702 22.5377 320.856C22.1287 320.702 21.7238 320.553 21.3148 320.4Z" fill="white"/>
<path d="M21.3148 320.4C21.7198 320.549 22.1287 320.702 22.5377 320.856C22.1287 320.702 21.7238 320.553 21.3148 320.4Z" fill="url(#paint21_linear_2080_1401)"/>
<path d="M10.009 316.455C10.3573 316.57 10.7055 316.685 11.0537 316.8C10.7055 316.685 10.3573 316.57 10.009 316.455Z" fill="white"/>
<path d="M10.009 316.455C10.3573 316.57 10.7055 316.685 11.0537 316.8C10.7055 316.685 10.3573 316.57 10.009 316.455Z" fill="url(#paint22_linear_2080_1401)"/>
<path d="M22.9526 321.013C23.3657 321.166 23.7787 321.324 24.1958 321.481C23.7828 321.324 23.3657 321.171 22.9526 321.013Z" fill="white"/>
<path d="M22.9526 321.013C23.3657 321.166 23.7787 321.324 24.1958 321.481C23.7828 321.324 23.3657 321.171 22.9526 321.013Z" fill="url(#paint23_linear_2080_1401)"/>
<path d="M3.73828 314.484C4.05817 314.582 4.37807 314.68 4.69796 314.778C4.37807 314.68 4.05817 314.582 3.73828 314.484Z" fill="white"/>
<path d="M3.73828 314.484C4.05817 314.582 4.37807 314.68 4.69796 314.778C4.37807 314.68 4.05817 314.582 3.73828 314.484Z" fill="url(#paint24_linear_2080_1401)"/>
<path d="M34.6222 325.58C35.1041 325.776 35.5859 325.976 36.0678 326.171C35.5859 325.971 35.1041 325.776 34.6222 325.58Z" fill="white"/>
<path d="M34.6222 325.58C35.1041 325.776 35.5859 325.976 36.0678 326.171C35.5859 325.971 35.1041 325.776 34.6222 325.58Z" fill="url(#paint25_linear_2080_1401)"/>
<path d="M0.667236 313.582C0.970932 313.667 1.27463 313.757 1.58237 313.846C1.27868 313.757 0.970932 313.667 0.667236 313.582Z" fill="white"/>
<path d="M0.667236 313.582C0.970932 313.667 1.27463 313.757 1.58237 313.846C1.27868 313.757 0.970932 313.667 0.667236 313.582Z" fill="url(#paint26_linear_2080_1401)"/>
<path d="M37.9966 326.967C38.4947 327.176 38.9968 327.384 39.4989 327.597C38.9968 327.389 38.4987 327.176 37.9966 326.967Z" fill="white"/>
<path d="M37.9966 326.967C38.4947 327.176 38.9968 327.384 39.4989 327.597C38.9968 327.389 38.4987 327.176 37.9966 326.967Z" fill="url(#paint27_linear_2080_1401)"/>
<path d="M39.6913 327.678C40.1975 327.891 40.7036 328.104 41.2098 328.321C40.7036 328.104 40.1975 327.891 39.6913 327.678Z" fill="white"/>
<path d="M39.6913 327.678C40.1975 327.891 40.7036 328.104 41.2098 328.321C40.7036 328.104 40.1975 327.891 39.6913 327.678Z" fill="url(#paint28_linear_2080_1401)"/>
<path d="M19.6655 319.8C20.0624 319.945 20.4592 320.09 20.856 320.234C20.4592 320.09 20.0624 319.945 19.6655 319.8Z" fill="white"/>
<path d="M19.6655 319.8C20.0624 319.945 20.4592 320.09 20.856 320.234C20.4592 320.09 20.0624 319.945 19.6655 319.8Z" fill="url(#paint29_linear_2080_1401)"/>
<path d="M2.19897 314.025C2.51482 314.119 2.83066 314.212 3.1465 314.306C2.83066 314.212 2.51482 314.119 2.19897 314.025Z" fill="white"/>
<path d="M2.19897 314.025C2.51482 314.119 2.83066 314.212 3.1465 314.306C2.83066 314.212 2.51482 314.119 2.19897 314.025Z" fill="url(#paint30_linear_2080_1401)"/>
<path d="M31.2632 324.222C31.7248 324.405 32.1864 324.592 32.6481 324.78C32.1864 324.592 31.7248 324.409 31.2632 324.222Z" fill="white"/>
<path d="M31.2632 324.222C31.7248 324.405 32.1864 324.592 32.6481 324.78C32.1864 324.592 31.7248 324.409 31.2632 324.222Z" fill="url(#paint31_linear_2080_1401)"/>
<path d="M32.9392 324.899C33.413 325.09 33.8868 325.282 34.3605 325.473C33.8868 325.282 33.413 325.086 32.9392 324.899Z" fill="white"/>
<path d="M32.9392 324.899C33.413 325.09 33.8868 325.282 34.3605 325.473C33.8868 325.282 33.413 325.086 32.9392 324.899Z" fill="url(#paint32_linear_2080_1401)"/>
<path d="M36.3055 326.269C36.7955 326.469 37.2855 326.674 37.7795 326.878C37.2895 326.674 36.7955 326.469 36.3055 326.269Z" fill="white"/>
<path d="M36.3055 326.269C36.7955 326.469 37.2855 326.674 37.7795 326.878C37.2895 326.674 36.7955 326.469 36.3055 326.269Z" fill="url(#paint33_linear_2080_1401)"/>
<path d="M18.0391 319.213C18.4318 319.353 18.8287 319.498 19.2215 319.638C18.8246 319.494 18.4318 319.353 18.0391 319.213Z" fill="white"/>
<path d="M18.0391 319.213C18.4318 319.353 18.8287 319.498 19.2215 319.638C18.8246 319.494 18.4318 319.353 18.0391 319.213Z" fill="url(#paint34_linear_2080_1401)"/>
<path d="M6.85474 315.442C7.18678 315.548 7.52287 315.655 7.85491 315.761C7.52287 315.655 7.18678 315.548 6.85474 315.442Z" fill="white"/>
<path d="M6.85474 315.442C7.18678 315.548 7.52287 315.655 7.85491 315.761C7.52287 315.655 7.18678 315.548 6.85474 315.442Z" fill="url(#paint35_linear_2080_1401)"/>
<path d="M16.4203 318.638C16.805 318.774 17.1897 318.911 17.5743 319.047C17.1897 318.911 16.805 318.774 16.4203 318.638Z" fill="white"/>
<path d="M16.4203 318.638C16.805 318.774 17.1897 318.911 17.5743 319.047C17.1897 318.911 16.805 318.774 16.4203 318.638Z" fill="url(#paint36_linear_2080_1401)"/>
<path d="M14.8013 318.072C15.1779 318.204 15.5544 318.336 15.931 318.468C15.5544 318.336 15.1779 318.204 14.8013 318.072Z" fill="white"/>
<path d="M14.8013 318.072C15.1779 318.204 15.5544 318.336 15.931 318.468C15.5544 318.336 15.1779 318.204 14.8013 318.072Z" fill="url(#paint37_linear_2080_1401)"/>
<path d="M8.4281 315.944C8.76824 316.055 9.11243 316.166 9.45662 316.276C9.11243 316.166 8.76824 316.051 8.4281 315.944Z" fill="white"/>
<path d="M8.4281 315.944C8.76824 316.055 9.11243 316.166 9.45662 316.276C9.11243 316.166 8.76824 316.051 8.4281 315.944Z" fill="url(#paint38_linear_2080_1401)"/>
<path d="M11.5977 316.983C11.954 317.102 12.3144 317.225 12.6707 317.344C12.3103 317.225 11.954 317.102 11.5977 316.983Z" fill="white"/>
<path d="M11.5977 316.983C11.954 317.102 12.3144 317.225 12.6707 317.344C12.3103 317.225 11.954 317.102 11.5977 316.983Z" fill="url(#paint39_linear_2080_1401)"/>
<path d="M5.29272 314.957C5.61667 315.055 5.94061 315.157 6.26455 315.259C5.94061 315.157 5.61667 315.055 5.29272 314.957Z" fill="white"/>
<path d="M5.29272 314.957C5.61667 315.055 5.94061 315.157 6.26455 315.259C5.94061 315.157 5.61667 315.055 5.29272 314.957Z" fill="url(#paint40_linear_2080_1401)"/>
<path d="M13.1938 317.519C13.5623 317.647 13.9349 317.774 14.3074 317.902C13.9349 317.774 13.5664 317.647 13.1938 317.519Z" fill="white"/>
<path d="M13.1938 317.519C13.5623 317.647 13.9349 317.774 14.3074 317.902C13.9349 317.774 13.5664 317.647 13.1938 317.519Z" fill="url(#paint41_linear_2080_1401)"/>
<path d="M0.178766 313.446C0.130407 313.433 0.0860773 313.42 0.041748 313.408C0.0860773 313.42 0.134437 313.433 0.178766 313.446Z" fill="white"/>
<path d="M955.395 52.2492L954.99 51.3342L954.585 50.4192L954.172 51.3512L953.759 52.2833C953.228 53.475 952.512 54.5475 951.641 55.4625C950.77 56.3775 949.75 57.1351 948.616 57.6884L947.729 58.1225L946.843 58.5566L947.713 58.9822L948.584 59.4078C949.718 59.961 950.742 60.7144 951.613 61.6294C952.483 62.5402 953.208 63.6127 953.739 64.8043L954.164 65.7534L954.589 66.7025L955.002 65.7704L955.415 64.8384C955.945 63.6467 956.662 62.5742 957.533 61.6592C958.403 60.7442 959.424 59.9866 960.558 59.4333L961.444 58.9992L962.331 58.5651L961.428 58.1182L960.525 57.6714C959.395 57.1138 958.375 56.3563 957.504 55.437C956.638 54.522 955.917 53.4452 955.391 52.2535L955.395 52.2492Z" fill="white"/>
<path d="M913.344 30.6288L912.85 29.5137L912.356 28.3987L911.85 29.535L911.343 30.6714C910.7 32.1227 909.821 33.4292 908.76 34.5485C907.699 35.6636 906.452 36.5872 905.071 37.2639L903.99 37.7916L902.909 38.3193L903.97 38.8386L905.03 39.3578C906.411 40.0302 907.658 40.9495 908.723 42.0646C909.788 43.1796 910.667 44.4862 911.315 45.9332L911.829 47.0908L912.344 48.2485L912.846 47.1121L913.348 45.9758C913.992 44.5245 914.87 43.2137 915.931 42.0986C916.992 40.9836 918.239 40.06 919.62 39.3833L920.701 38.8513L921.783 38.3193L920.681 37.7788L919.58 37.2383C918.199 36.5574 916.956 35.6338 915.899 34.5145C914.838 33.3952 913.967 32.0843 913.324 30.6331L913.344 30.6288Z" fill="white"/>
<path d="M931.718 18.6953L931.479 18.1547L931.24 17.6143L930.997 18.1633L930.754 18.7123C930.443 19.4145 930.017 20.0487 929.503 20.5892C928.989 21.1297 928.386 21.5765 927.717 21.9042L927.195 22.1596L926.673 22.415L927.187 22.6661L927.701 22.9172C928.369 23.2449 928.973 23.6875 929.491 24.228C930.005 24.7685 930.431 25.3984 930.746 26.1006L930.997 26.6582L931.248 27.2157L931.491 26.6667L931.734 26.1177C932.046 25.4154 932.471 24.7813 932.986 24.2408C933.5 23.7003 934.103 23.2534 934.771 22.9257L935.294 22.6703L935.816 22.415L935.286 22.1511L934.755 21.8872C934.087 21.5595 933.484 21.1084 932.974 20.5679C932.459 20.0274 932.038 19.3932 931.726 18.6867L931.718 18.6953Z" fill="white"/>
<path d="M964.236 15.8821L963.997 15.3415L963.758 14.801L963.515 15.3501L963.273 15.8991C962.961 16.6013 962.536 17.2354 962.021 17.7759C961.507 18.3164 960.904 18.7633 960.236 19.091L959.713 19.3464L959.191 19.6018L959.705 19.8528L960.219 20.104C960.887 20.4317 961.491 20.8743 962.009 21.4148C962.523 21.9553 962.949 22.5852 963.264 23.2874L963.515 23.8449L963.767 24.4025L964.009 23.8535L964.252 23.3044C964.564 22.6022 964.989 21.9681 965.504 21.4276C966.018 20.887 966.621 20.4402 967.289 20.1125L967.812 19.8571L968.334 19.6018L967.804 19.3379L967.273 19.074C966.605 18.7463 966.002 18.2952 965.492 17.7547C964.977 17.2142 964.556 16.58 964.244 15.8735L964.236 15.8821Z" fill="white"/>
<path d="M122.554 92.6552L122.315 92.1147L122.076 91.5742L121.833 92.1232L121.59 92.6723C121.278 93.3745 120.853 94.0086 120.339 94.5491C119.824 95.0896 119.221 95.5365 118.553 95.8642L118.03 96.1196L117.508 96.375L118.022 96.626L118.537 96.8772C119.205 97.2049 119.808 97.6475 120.326 98.188C120.841 98.7285 121.266 99.3584 121.582 100.061L121.833 100.618L122.084 101.176L122.327 100.627L122.57 100.078C122.882 99.3754 123.307 98.7413 123.821 98.2007C124.335 97.6602 124.939 97.2134 125.607 96.8856L126.129 96.6303L126.651 96.375L126.121 96.1111L125.591 95.8472C124.922 95.5195 124.319 95.0684 123.809 94.5279C123.295 93.9873 122.873 93.3532 122.562 92.6467L122.554 92.6552Z" fill="white"/>
</g>
<defs>
<filter color-interpolation-filters="sRGB" filterUnits="userSpaceOnUse" height="201.633" id="filter0_d_2080_1401" width="243.4" x="661.006" y="144.57">
<feFlood flood-opacity="0" result="BackgroundImageFix"/>
<feColorMatrix in="SourceAlpha" result="hardAlpha" type="matrix" values="0 0 0 0 0 0 0 0 0 0 0 0 0 0 0 0 0 0 127 0"/>
<feOffset/>
<feGaussianBlur stdDeviation="18"/>
<feColorMatrix type="matrix" values="0 0 0 0 1 0 0 0 0 1 0 0 0 0 1 0 0 0 0.5 0"/>
<feBlend in2="BackgroundImageFix" mode="normal" result="effect1_dropShadow_2080_1401"/>
<feBlend in="SourceGraphic" in2="effect1_dropShadow_2080_1401" mode="normal" result="shape"/>
</filter>
<filter color-interpolation-filters="sRGB" filterUnits="userSpaceOnUse" height="155.277" id="filter1_d_2080_1401" width="303.624" x="613.342" y="193.397">
<feFlood flood-opacity="0" result="BackgroundImageFix"/>
<feColorMatrix in="SourceAlpha" result="hardAlpha" type="matrix" values="0 0 0 0 0 0 0 0 0 0 0 0 0 0 0 0 0 0 127 0"/>
<feOffset/>
<feGaussianBlur stdDeviation="24"/>
<feColorMatrix type="matrix" values="0 0 0 0 1 0 0 0 0 1 0 0 0 0 1 0 0 0 0.75 0"/>
<feBlend in2="BackgroundImageFix" mode="normal" result="effect1_dropShadow_2080_1401"/>
<feBlend in="SourceGraphic" in2="effect1_dropShadow_2080_1401" mode="normal" result="shape"/>
</filter>
<linearGradient gradientUnits="userSpaceOnUse" id="paint0_linear_2080_1401" x1="-62.4799" x2="173.778" y1="-10.5219" y2="172.857">
<stop offset="0.13" stop-color="#0069FF"/>
<stop offset="0.27" stop-color="#0084FF"/>
<stop offset="0.54" stop-color="#00BFFF"/>
<stop offset="0.61" stop-color="#04C0FF"/>
<stop offset="0.68" stop-color="#10C3FF"/>
<stop offset="0.75" stop-color="#25C8FF"/>
<stop offset="0.82" stop-color="#42CFFF"/>
<stop offset="0.89" stop-color="#67D9FF"/>
<stop offset="0.93" stop-color="#7BDEFF"/>
</linearGradient>
<linearGradient gradientUnits="userSpaceOnUse" id="paint1_linear_2080_1401" x1="506.422" x2="1089.63" y1="510.714" y2="116.582">
<stop stop-color="#0069FF"/>
<stop offset="1" stop-color="#7BDEFF"/>
</linearGradient>
<linearGradient gradientUnits="userSpaceOnUse" id="paint2_linear_2080_1401" x1="1140.43" x2="964.903" y1="207.877" y2="16.4284">
<stop stop-color="#002C9B"/>
<stop offset="0.65" stop-color="#00BFFF"/>
</linearGradient>
<linearGradient gradientUnits="userSpaceOnUse" id="paint3_linear_2080_1401" x1="1344.17" x2="684.107" y1="145.493" y2="305.144">
<stop offset="0.37" stop-color="#002C9B"/>
<stop offset="1" stop-color="#0069FF"/>
</linearGradient>
<linearGradient gradientUnits="userSpaceOnUse" id="paint4_linear_2080_1401" x1="883.171" x2="731.456" y1="192.398" y2="276.562">
<stop offset="0.17" stop-color="white"/>
<stop offset="0.3" stop-color="#DCF3FB"/>
<stop offset="0.53" stop-color="#9ADEF4"/>
<stop offset="0.64" stop-color="#6FD5F7"/>
<stop offset="0.9" stop-color="#04BFFE"/>
<stop offset="0.91" stop-color="#00BFFF"/>
</linearGradient>
<linearGradient gradientUnits="userSpaceOnUse" id="paint5_linear_2080_1401" x1="852.807" x2="731.883" y1="192.321" y2="305.838">
<stop offset="0.3" stop-color="#00BFFF"/>
<stop offset="0.4" stop-color="#00BBFF"/>
<stop offset="0.48" stop-color="#00B0FF"/>
<stop offset="0.57" stop-color="#009EFF"/>
<stop offset="0.65" stop-color="#0085FF"/>
<stop offset="0.72" stop-color="#0069FF"/>
</linearGradient>
<linearGradient gradientUnits="userSpaceOnUse" id="paint6_linear_2080_1401" x1="725.947" x2="752.455" y1="248.21" y2="269.8">
<stop offset="0.07" stop-color="#002C97"/>
<stop offset="0.17" stop-color="#002889"/>
<stop offset="0.36" stop-color="#021E67"/>
<stop offset="0.6" stop-color="#040E2F"/>
<stop offset="0.65" stop-color="#050B24"/>
</linearGradient>
<linearGradient gradientUnits="userSpaceOnUse" id="paint7_linear_2080_1401" x1="849" x2="863.824" y1="235.796" y2="247.87">
<stop offset="0.07" stop-color="#002C97"/>
<stop offset="0.17" stop-color="#002889"/>
<stop offset="0.36" stop-color="#021E67"/>
<stop offset="0.6" stop-color="#040E2F"/>
<stop offset="0.65" stop-color="#050B24"/>
</linearGradient>
<linearGradient gradientUnits="userSpaceOnUse" id="paint8_linear_2080_1401" x1="883.451" x2="908.554" y1="236.574" y2="257.021">
<stop offset="0.07" stop-color="#002C97"/>
<stop offset="0.17" stop-color="#002889"/>
<stop offset="0.36" stop-color="#021E67"/>
<stop offset="0.6" stop-color="#040E2F"/>
<stop offset="0.65" stop-color="#050B24"/>
</linearGradient>
<linearGradient gradientUnits="userSpaceOnUse" id="paint9_linear_2080_1401" x1="0" x2="1088" y1="203.587" y2="203.587">
<stop offset="0.13" stop-color="#0069FF"/>
<stop offset="0.18" stop-color="#0076FF"/>
<stop offset="0.36" stop-color="#009DFF"/>
<stop offset="0.5" stop-color="#00B6FF"/>
<stop offset="0.59" stop-color="#00BFFF"/>
<stop offset="0.64" stop-color="#17C4FF"/>
<stop offset="0.77" stop-color="#4DD2FF"/>
<stop offset="0.87" stop-color="#6EDAFF"/>
<stop offset="0.93" stop-color="#7BDEFF"/>
</linearGradient>
<linearGradient gradientUnits="userSpaceOnUse" id="paint10_linear_2080_1401" x1="819.216" x2="1131.9" y1="417.317" y2="219.91">
<stop offset="0.13" stop-color="#0069FF"/>
<stop offset="0.31" stop-color="#0084FF"/>
<stop offset="0.64" stop-color="#00BFFF"/>
<stop offset="0.69" stop-color="#04C0FF"/>
<stop offset="0.74" stop-color="#10C3FF"/>
<stop offset="0.79" stop-color="#25C8FF"/>
<stop offset="0.85" stop-color="#42CFFF"/>
<stop offset="0.9" stop-color="#67D9FF"/>
<stop offset="0.93" stop-color="#7BDEFF"/>
</linearGradient>
<linearGradient gradientUnits="userSpaceOnUse" id="paint11_linear_2080_1401" x1="-53.919" x2="254.361" y1="182.175" y2="354.199">
<stop offset="0.04" stop-color="#0069FF"/>
<stop offset="0.17" stop-color="#0075FF"/>
<stop offset="0.4" stop-color="#0097FF"/>
<stop offset="0.64" stop-color="#00BFFF"/>
<stop offset="0.69" stop-color="#04C0FF"/>
<stop offset="0.74" stop-color="#10C3FF"/>
<stop offset="0.79" stop-color="#25C8FF"/>
<stop offset="0.85" stop-color="#42CFFF"/>
<stop offset="0.9" stop-color="#67D9FF"/>
<stop offset="0.93" stop-color="#7BDEFF"/>
</linearGradient>
<linearGradient gradientUnits="userSpaceOnUse" id="paint12_linear_2080_1401" x1="279.661" x2="23.7424" y1="404.264" y2="245.815">
<stop offset="0.22" stop-color="#002C9B"/>
<stop offset="0.35" stop-color="#003DB8"/>
<stop offset="0.56" stop-color="#0055DE"/>
<stop offset="0.72" stop-color="#0063F6"/>
<stop offset="0.82" stop-color="#0069FF"/>
</linearGradient>
<linearGradient gradientUnits="userSpaceOnUse" id="paint13_linear_2080_1401" x1="1064.96" x2="827.592" y1="265.2" y2="392.196">
<stop stop-color="#002C9B"/>
<stop offset="0.16" stop-color="#002E9F"/>
<stop offset="0.33" stop-color="#0036AB"/>
<stop offset="0.5" stop-color="#0043C0"/>
<stop offset="0.67" stop-color="#0054DE"/>
<stop offset="0.82" stop-color="#0069FF"/>
</linearGradient>
<linearGradient gradientUnits="userSpaceOnUse" id="paint14_linear_2080_1401" x1="1116.86" x2="986.924" y1="273.666" y2="384.982">
<stop stop-color="#002C9B"/>
<stop offset="0.02" stop-color="#0032A5"/>
<stop offset="0.16" stop-color="#0059E5"/>
<stop offset="0.23" stop-color="#0069FF"/>
<stop offset="0.4" stop-color="#008DFF"/>
<stop offset="0.55" stop-color="#00A8FF"/>
<stop offset="0.69" stop-color="#00B9FF"/>
<stop offset="0.8" stop-color="#00BFFF"/>
</linearGradient>
<linearGradient gradientUnits="userSpaceOnUse" id="paint15_linear_2080_1401" x1="93.953" x2="349.799" y1="307.871" y2="406.169">
<stop offset="0.09" stop-color="white"/>
<stop offset="0.19" stop-color="#EAF9FE"/>
<stop offset="0.52" stop-color="#AEE9FD"/>
<stop offset="0.76" stop-color="#88DFFD"/>
<stop offset="0.89" stop-color="#7ADCFD"/>
</linearGradient>
<linearGradient gradientUnits="userSpaceOnUse" id="paint16_linear_2080_1401" x1="120.143" x2="-41.5768" y1="411.703" y2="296.684">
<stop offset="0.22" stop-color="#002C9B"/>
<stop offset="0.35" stop-color="#003DB8"/>
<stop offset="0.56" stop-color="#0055DE"/>
<stop offset="0.72" stop-color="#0063F6"/>
<stop offset="0.82" stop-color="#0069FF"/>
</linearGradient>
<linearGradient gradientUnits="userSpaceOnUse" id="paint17_linear_2080_1401" x1="-361.972" x2="39.0834" y1="217.838" y2="315.554">
<stop stop-color="#002C9B"/>
<stop offset="0.16" stop-color="#002E9F"/>
<stop offset="0.33" stop-color="#0036AB"/>
<stop offset="0.5" stop-color="#0043C0"/>
<stop offset="0.67" stop-color="#0054DE"/>
<stop offset="0.82" stop-color="#0069FF"/>
</linearGradient>
<linearGradient gradientUnits="userSpaceOnUse" id="paint18_linear_2080_1401" x1="-362.02" x2="39.0323" y1="218.032" y2="315.754">
<stop stop-color="#002C9B"/>
<stop offset="0.16" stop-color="#002E9F"/>
<stop offset="0.33" stop-color="#0036AB"/>
<stop offset="0.5" stop-color="#0043C0"/>
<stop offset="0.67" stop-color="#0054DE"/>
<stop offset="0.82" stop-color="#0069FF"/>
</linearGradient>
<linearGradient gradientUnits="userSpaceOnUse" id="paint19_linear_2080_1401" x1="-362.065" x2="38.9884" y1="218.226" y2="315.945">
<stop stop-color="#002C9B"/>
<stop offset="0.16" stop-color="#002E9F"/>
<stop offset="0.33" stop-color="#0036AB"/>
<stop offset="0.5" stop-color="#0043C0"/>
<stop offset="0.67" stop-color="#0054DE"/>
<stop offset="0.82" stop-color="#0069FF"/>
</linearGradient>
<linearGradient gradientUnits="userSpaceOnUse" id="paint20_linear_2080_1401" x1="-361.924" x2="39.1288" y1="217.664" y2="315.384">
<stop stop-color="#002C9B"/>
<stop offset="0.16" stop-color="#002E9F"/>
<stop offset="0.33" stop-color="#0036AB"/>
<stop offset="0.5" stop-color="#0043C0"/>
<stop offset="0.67" stop-color="#0054DE"/>
<stop offset="0.82" stop-color="#0069FF"/>
</linearGradient>
<linearGradient gradientUnits="userSpaceOnUse" id="paint21_linear_2080_1401" x1="-361.846" x2="39.2098" y1="217.327" y2="315.042">
<stop stop-color="#002C9B"/>
<stop offset="0.16" stop-color="#002E9F"/>
<stop offset="0.33" stop-color="#0036AB"/>
<stop offset="0.5" stop-color="#0043C0"/>
<stop offset="0.67" stop-color="#0054DE"/>
<stop offset="0.82" stop-color="#0069FF"/>
</linearGradient>
<linearGradient gradientUnits="userSpaceOnUse" id="paint22_linear_2080_1401" x1="-361.629" x2="39.4242" y1="216.451" y2="314.164">
<stop stop-color="#002C9B"/>
<stop offset="0.16" stop-color="#002E9F"/>
<stop offset="0.33" stop-color="#0036AB"/>
<stop offset="0.5" stop-color="#0043C0"/>
<stop offset="0.67" stop-color="#0054DE"/>
<stop offset="0.82" stop-color="#0069FF"/>
</linearGradient>
<linearGradient gradientUnits="userSpaceOnUse" id="paint23_linear_2080_1401" x1="-361.888" x2="39.1673" y1="217.498" y2="315.22">
<stop stop-color="#002C9B"/>
<stop offset="0.16" stop-color="#002E9F"/>
<stop offset="0.33" stop-color="#0036AB"/>
<stop offset="0.5" stop-color="#0043C0"/>
<stop offset="0.67" stop-color="#0054DE"/>
<stop offset="0.82" stop-color="#0069FF"/>
</linearGradient>
<linearGradient gradientUnits="userSpaceOnUse" id="paint24_linear_2080_1401" x1="-361.567" x2="39.4874" y1="216.169" y2="313.88">
<stop stop-color="#002C9B"/>
<stop offset="0.16" stop-color="#002E9F"/>
<stop offset="0.33" stop-color="#0036AB"/>
<stop offset="0.5" stop-color="#0043C0"/>
<stop offset="0.67" stop-color="#0054DE"/>
<stop offset="0.82" stop-color="#0069FF"/>
</linearGradient>
<linearGradient gradientUnits="userSpaceOnUse" id="paint25_linear_2080_1401" x1="-362.221" x2="38.832" y1="218.865" y2="316.584">
<stop stop-color="#002C9B"/>
<stop offset="0.16" stop-color="#002E9F"/>
<stop offset="0.33" stop-color="#0036AB"/>
<stop offset="0.5" stop-color="#0043C0"/>
<stop offset="0.67" stop-color="#0054DE"/>
<stop offset="0.82" stop-color="#0069FF"/>
</linearGradient>
<linearGradient gradientUnits="userSpaceOnUse" id="paint26_linear_2080_1401" x1="-361.548" x2="39.5014" y1="216.102" y2="313.822">
<stop stop-color="#002C9B"/>
<stop offset="0.16" stop-color="#002E9F"/>
<stop offset="0.33" stop-color="#0036AB"/>
<stop offset="0.5" stop-color="#0043C0"/>
<stop offset="0.67" stop-color="#0054DE"/>
<stop offset="0.82" stop-color="#0069FF"/>
</linearGradient>
<linearGradient gradientUnits="userSpaceOnUse" id="paint27_linear_2080_1401" x1="-362.333" x2="38.7189" y1="219.327" y2="317.049">
<stop stop-color="#002C9B"/>
<stop offset="0.16" stop-color="#002E9F"/>
<stop offset="0.33" stop-color="#0036AB"/>
<stop offset="0.5" stop-color="#0043C0"/>
<stop offset="0.67" stop-color="#0054DE"/>
<stop offset="0.82" stop-color="#0069FF"/>
</linearGradient>
<linearGradient gradientUnits="userSpaceOnUse" id="paint28_linear_2080_1401" x1="-362.396" x2="38.6611" y1="219.567" y2="317.287">
<stop stop-color="#002C9B"/>
<stop offset="0.16" stop-color="#002E9F"/>
<stop offset="0.33" stop-color="#0036AB"/>
<stop offset="0.5" stop-color="#0043C0"/>
<stop offset="0.67" stop-color="#0054DE"/>
<stop offset="0.82" stop-color="#0069FF"/>
</linearGradient>
<linearGradient gradientUnits="userSpaceOnUse" id="paint29_linear_2080_1401" x1="-361.814" x2="39.2378" y1="217.187" y2="314.92">
<stop stop-color="#002C9B"/>
<stop offset="0.16" stop-color="#002E9F"/>
<stop offset="0.33" stop-color="#0036AB"/>
<stop offset="0.5" stop-color="#0043C0"/>
<stop offset="0.67" stop-color="#0054DE"/>
<stop offset="0.82" stop-color="#0069FF"/>
</linearGradient>
<linearGradient gradientUnits="userSpaceOnUse" id="paint30_linear_2080_1401" x1="-361.551" x2="39.5012" y1="216.126" y2="313.84">
<stop stop-color="#002C9B"/>
<stop offset="0.16" stop-color="#002E9F"/>
<stop offset="0.33" stop-color="#0036AB"/>
<stop offset="0.5" stop-color="#0043C0"/>
<stop offset="0.67" stop-color="#0054DE"/>
<stop offset="0.82" stop-color="#0069FF"/>
</linearGradient>
<linearGradient gradientUnits="userSpaceOnUse" id="paint31_linear_2080_1401" x1="-362.114" x2="38.9407" y1="218.427" y2="316.144">
<stop stop-color="#002C9B"/>
<stop offset="0.16" stop-color="#002E9F"/>
<stop offset="0.33" stop-color="#0036AB"/>
<stop offset="0.5" stop-color="#0043C0"/>
<stop offset="0.67" stop-color="#0054DE"/>
<stop offset="0.82" stop-color="#0069FF"/>
</linearGradient>
<linearGradient gradientUnits="userSpaceOnUse" id="paint32_linear_2080_1401" x1="-362.171" x2="38.8809" y1="218.647" y2="316.369">
<stop stop-color="#002C9B"/>
<stop offset="0.16" stop-color="#002E9F"/>
<stop offset="0.33" stop-color="#0036AB"/>
<stop offset="0.5" stop-color="#0043C0"/>
<stop offset="0.67" stop-color="#0054DE"/>
<stop offset="0.82" stop-color="#0069FF"/>
</linearGradient>
<linearGradient gradientUnits="userSpaceOnUse" id="paint33_linear_2080_1401" x1="-362.279" x2="38.7715" y1="219.097" y2="316.821">
<stop stop-color="#002C9B"/>
<stop offset="0.16" stop-color="#002E9F"/>
<stop offset="0.33" stop-color="#0036AB"/>
<stop offset="0.5" stop-color="#0043C0"/>
<stop offset="0.67" stop-color="#0054DE"/>
<stop offset="0.82" stop-color="#0069FF"/>
</linearGradient>
<linearGradient gradientUnits="userSpaceOnUse" id="paint34_linear_2080_1401" x1="-361.777" x2="39.2759" y1="217.036" y2="314.757">
<stop stop-color="#002C9B"/>
<stop offset="0.16" stop-color="#002E9F"/>
<stop offset="0.33" stop-color="#0036AB"/>
<stop offset="0.5" stop-color="#0043C0"/>
<stop offset="0.67" stop-color="#0054DE"/>
<stop offset="0.82" stop-color="#0069FF"/>
</linearGradient>
<linearGradient gradientUnits="userSpaceOnUse" id="paint35_linear_2080_1401" x1="-361.592" x2="39.4575" y1="216.297" y2="314.016">
<stop stop-color="#002C9B"/>
<stop offset="0.16" stop-color="#002E9F"/>
<stop offset="0.33" stop-color="#0036AB"/>
<stop offset="0.5" stop-color="#0043C0"/>
<stop offset="0.67" stop-color="#0054DE"/>
<stop offset="0.82" stop-color="#0069FF"/>
</linearGradient>
<linearGradient gradientUnits="userSpaceOnUse" id="paint36_linear_2080_1401" x1="-361.739" x2="39.3172" y1="216.891" y2="314.604">
<stop stop-color="#002C9B"/>
<stop offset="0.16" stop-color="#002E9F"/>
<stop offset="0.33" stop-color="#0036AB"/>
<stop offset="0.5" stop-color="#0043C0"/>
<stop offset="0.67" stop-color="#0054DE"/>
<stop offset="0.82" stop-color="#0069FF"/>
</linearGradient>
<linearGradient gradientUnits="userSpaceOnUse" id="paint37_linear_2080_1401" x1="-361.714" x2="39.3449" y1="216.77" y2="314.486">
<stop stop-color="#002C9B"/>
<stop offset="0.16" stop-color="#002E9F"/>
<stop offset="0.33" stop-color="#0036AB"/>
<stop offset="0.5" stop-color="#0043C0"/>
<stop offset="0.67" stop-color="#0054DE"/>
<stop offset="0.82" stop-color="#0069FF"/>
</linearGradient>
<linearGradient gradientUnits="userSpaceOnUse" id="paint38_linear_2080_1401" x1="-361.606" x2="39.4412" y1="216.37" y2="314.086">
<stop stop-color="#002C9B"/>
<stop offset="0.16" stop-color="#002E9F"/>
<stop offset="0.33" stop-color="#0036AB"/>
<stop offset="0.5" stop-color="#0043C0"/>
<stop offset="0.67" stop-color="#0054DE"/>
<stop offset="0.82" stop-color="#0069FF"/>
</linearGradient>
<linearGradient gradientUnits="userSpaceOnUse" id="paint39_linear_2080_1401" x1="-361.652" x2="39.3993" y1="216.541" y2="314.254">
<stop stop-color="#002C9B"/>
<stop offset="0.16" stop-color="#002E9F"/>
<stop offset="0.33" stop-color="#0036AB"/>
<stop offset="0.5" stop-color="#0043C0"/>
<stop offset="0.67" stop-color="#0054DE"/>
<stop offset="0.82" stop-color="#0069FF"/>
</linearGradient>
<linearGradient gradientUnits="userSpaceOnUse" id="paint40_linear_2080_1401" x1="-361.575" x2="39.4724" y1="216.234" y2="313.962">
<stop stop-color="#002C9B"/>
<stop offset="0.16" stop-color="#002E9F"/>
<stop offset="0.33" stop-color="#0036AB"/>
<stop offset="0.5" stop-color="#0043C0"/>
<stop offset="0.67" stop-color="#0054DE"/>
<stop offset="0.82" stop-color="#0069FF"/>
</linearGradient>
<linearGradient gradientUnits="userSpaceOnUse" id="paint41_linear_2080_1401" x1="-361.686" x2="39.3722" y1="216.654" y2="314.377">
<stop stop-color="#002C9B"/>
<stop offset="0.16" stop-color="#002E9F"/>
<stop offset="0.33" stop-color="#0036AB"/>
<stop offset="0.5" stop-color="#0043C0"/>
<stop offset="0.67" stop-color="#0054DE"/>
<stop offset="0.82" stop-color="#0069FF"/>
</linearGradient>
<clipPath id="clip0_2080_1401">
<rect fill="white" height="328" width="1088"/>
</clipPath>
</defs>
</svg>