<?xml version="1.0" encoding="utf-8"?>
<svg xmlns="http://www.w3.org/2000/svg" fill="none" height="80" width="80">
  <path d="M69.54 43.327a1.77 1.77 0 0 0-1.74-1.426H11.77c-.86 0-1.59.608-1.75 1.446L4 76h72z" fill="url(#a)"/>
  <path d="M39.77 24.332H9.7L17.25 41.9h45.36l7.23-17.568z" fill="#300091"/>
  <path d="M61.79 19.314a14.1 14.1 0 0 0-7.47-2.135H25.23c-2.64 0-5.23.738-7.47 2.135l-8.05 5.018h60.14l-8.05-5.018z" fill="url(#b)"/>
  <path d="M5.64 67.111h68.6l-.33-1.666H5.95zm2.53-13.728h63.36l-.33-1.676H8.48zm5.94-31.794h51.33l-2.19-1.367H16.29zM8.06 74.394c.994 0 1.8-.804 1.8-1.796s-.806-1.796-1.8-1.796-1.8.804-1.8 1.796.806 1.796 1.8 1.796m58.3-26.328c.994 0 1.8-.804 1.8-1.796s-.806-1.796-1.8-1.796-1.8.805-1.8 1.796c0 .992.806 1.796 1.8 1.796m5.12 26.398c.994 0 1.8-.804 1.8-1.796s-.806-1.796-1.8-1.796-1.8.804-1.8 1.796.806 1.796 1.8 1.796m-58.3-26.468c.994 0 1.8-.804 1.8-1.796 0-.991-.806-1.795-1.8-1.795s-1.8.804-1.8 1.795c0 .992.806 1.796 1.8 1.796" fill="#300091"/>
  <path d="M69.54 43.327a1.77 1.77 0 0 0-1.74-1.426H11.77c-.86 0-1.59.608-1.75 1.446h59.52zm-8.59-24.502a14.1 14.1 0 0 0-6.63-1.656H25.23c-2.64 0-5.23.738-7.47 2.135l-5.43 3.382 6.43-3.312c1.8-.928 3.79-1.417 5.81-1.427l29.28-.16c2.4-.01 4.8.34 7.1 1.038" fill="#fff"/>
  <path d="M39.18 42.02c-9.89 4.23-10.15 18.118-10.15 18.118h21.48S50.24 46.25 40.35 42.02c-.37-.16-.8-.16-1.17 0" fill="#fff"/>
  <path d="M50.51 60.138H29.03v1.955h21.48z" fill="#300091"/>
  <path d="M39.23 43.586c-9.15 3.861-9.4 16.551-9.4 16.551h19.88s-.25-12.69-9.4-16.55c-.34-.14-.74-.14-1.08 0" fill="url(#c)"/>
  <path d="M42.36 53.194h-.02a4.19 4.19 0 0 0 1.59-4.08c-.32-1.786-1.83-3.213-3.64-3.422-2.56-.3-4.74 1.686-4.74 4.18 0 1.356.66 2.554 1.66 3.322h-.02l-2.78 3.83h10.75l-2.78-3.83z" fill="#1433D6"/>
  <path d="M39.79 47.338c2.04 0 3.72 1.446 4.12 3.372.06-.27.09-.559.09-.848 0-2.325-1.89-4.21-4.22-4.21a4.216 4.216 0 0 0-4.22 4.21c0 .289.03.568.09.848a4.216 4.216 0 0 1 4.14-3.372" fill="#300091"/>
  <path d="M9.956 34.35c.437-.436.197-1.383-.537-2.116-.735-.732-1.684-.972-2.122-.536s-.197 1.384.538 2.116c.734.733 1.684.973 2.12.536m5.378-4.44c.45-.162.592-.904.319-1.658-.274-.754-.86-1.234-1.309-1.072-.45.162-.592.904-.319 1.658s.86 1.233 1.309 1.072m57.394 7.1c.698-.697.93-1.597.516-2.01s-1.316-.183-2.016.515c-.699.697-.93 1.597-.516 2.01s1.317.183 2.016-.515" fill="#C6E3FF"/>
  <path d="M39.77 41.9h26.11a7.5 7.5 0 0 0 .45-2.563c0-4.21-3.42-7.623-7.64-7.623a7.63 7.63 0 0 0-6.7 3.971 5.4 5.4 0 0 0-2.77-.778c-2.12 0-3.93 1.217-4.83 2.983a3.3 3.3 0 0 0-1.62-.43c-1.31 0-2.43.74-3 1.827a3.39 3.39 0 0 0-3-1.826c-.59 0-1.14.16-1.62.429-.9-1.766-2.71-2.983-4.83-2.983-1.02 0-1.95.3-2.77.778a7.64 7.64 0 0 0-6.7-3.97c-4.22 0-7.64 3.411-7.64 7.622 0 .897.16 1.765.45 2.563z" fill="url(#d)"/>
  <path d="M40.76 5.247c4.2 0 8.02 1.566 10.95 4.13C48.78 6.085 44.51 4 39.75 4c-8.85 0-16.02 7.153-16.02 15.982 0 1.547.23 3.033.64 4.45-.14-.848-.23-1.716-.23-2.604 0-9.148 7.44-16.571 16.61-16.571z" fill="#fff"/>
  <path d="M39.75 35.955c8.85 0 16.02-7.154 16.02-15.983 0-4.07-1.54-7.781-4.06-10.605a16.54 16.54 0 0 0-10.95-4.13c-9.17 0-16.61 7.422-16.61 16.57 0 .889.09 1.757.23 2.605 1.93 6.654 8.08 11.533 15.37 11.533z" fill="url(#e)"/>
  <path d="m25.98 27.604 6.59 5.897L52.1 11.8c-1.64-2.753-3.86-4.658-6.45-6.045L25.99 27.604z" fill="url(#f)"/>
  <path d="M48.24 23.105c-.22-2.614-1.95-4.09-6.26-5.098-2.7-.659-3.98-1.187-3.96-1.846.02-.529.51-1.077 2.39-1.077 2.01 0 3.5.439 4.47.768.36.12.74-.1.82-.469l.55-2.584a.43.43 0 0 0-.28-.509c-1.08-.369-2.45-.698-4.44-.768V9.966h.46c.1 0 .18-.08.18-.18 0-.05-.02-.1-.06-.13l-1.97-2.274a.246.246 0 0 0-.38 0l-2.04 2.285s-.05.08-.05.13c0 .099.08.169.18.169h.39l-.06 1.736c-3.56.548-5.76 2.504-6.03 5.068-.31 2.873 2.45 4.28 6.13 5.018 2.65.529 3.65.978 3.66 1.766.01.868-1.3 1.187-3.05 1.187-2.27 0-4.35-.539-5.89-1.098a.65.65 0 0 0-.82.37l-1.16 2.803c-.1.23.01.499.24.579 1.47.538 3.86 1.027 6.35 1.127l-.07 1.916c0 .249.19.458.44.458h3.29c.25 0 .45-.2.44-.449l-.02-2.164c4.53-.56 6.77-2.664 6.55-5.178" fill="#1433D6"/>
  <defs>
    <linearGradient gradientUnits="userSpaceOnUse" id="a" x1="40" x2="40" y1="39.895" y2="77.466">
      <stop offset=".06" stop-color="#006BFF"/>
      <stop offset=".88" stop-color="#0434DE"/>
    </linearGradient>
    <linearGradient gradientUnits="userSpaceOnUse" id="b" x1="39.77" x2="40.009" y1="24.561" y2="15.742">
      <stop stop-color="#006BFF"/>
      <stop offset="1" stop-color="#A2E5F2"/>
    </linearGradient>
    <linearGradient gradientUnits="userSpaceOnUse" id="c" x1="48.121" x2="35.968" y1="43.11" y2="60.792">
      <stop stop-color="#F4F9FF"/>
      <stop offset=".211" stop-color="#C6E3FF"/>
      <stop offset=".727" stop-color="#5FA3FF"/>
      <stop offset=".906" stop-color="#0069FF"/>
    </linearGradient>
    <linearGradient gradientUnits="userSpaceOnUse" id="d" x1="45.5" x2="44.5" y1="30.5" y2="51.5">
      <stop stop-color="#F4F9FF"/>
      <stop offset=".296" stop-color="#C6E3FF"/>
      <stop offset=".599" stop-color="#5FA3FF"/>
      <stop offset=".858" stop-color="#0069FF"/>
    </linearGradient>
    <linearGradient gradientUnits="userSpaceOnUse" id="e" x1="49.018" x2="29.818" y1="7.02" y2="33.9">
      <stop stop-color="#F4F9FF"/>
      <stop offset=".469" stop-color="#C6E3FF"/>
      <stop offset=".804" stop-color="#5FA3FF"/>
      <stop offset=".978" stop-color="#0069FF"/>
    </linearGradient>
    <linearGradient gradientUnits="userSpaceOnUse" id="f" x1="47.5" x2="33.661" y1="8" y2="31.479">
      <stop stop-color="#fff"/>
      <stop offset=".44" stop-color="#fff" stop-opacity="0"/>
    </linearGradient>
  </defs>
</svg>