<svg width="24" height="24" viewBox="0 0 24 24" fill="none" xmlns="http://www.w3.org/2000/svg"><path d="M7.44432 1.07693C6.27391 1.13215 5.47464 1.31893 4.77592 1.59349C4.05277 1.87531 3.43984 2.2535 2.83 2.86554C2.22015 3.47758 1.84461 4.09094 1.56476 4.81518C1.29394 5.51545 1.11046 6.31537 1.05876 7.48643C1.00706 8.6575 0.995618 9.03392 1.00134 12.0211C1.00706 15.0083 1.02026 15.3827 1.07702 16.5562C1.1329 17.7264 1.31902 18.5254 1.59358 19.2244C1.87585 19.9475 2.25359 20.5602 2.86586 21.1703C3.47812 21.7803 4.09105 22.155 4.81706 22.4353C5.51666 22.7056 6.31681 22.89 7.48766 22.9413C8.65852 22.9925 9.03538 23.0044 12.0217 22.9987C15.008 22.993 15.384 22.9798 16.5573 22.9241C17.7305 22.8684 18.5254 22.681 19.2246 22.4078C19.9477 22.1248 20.5609 21.7478 21.1705 21.1353C21.7801 20.5228 22.1554 19.909 22.4351 19.1843C22.7061 18.4847 22.8902 17.6846 22.9411 16.5146C22.9923 15.3405 23.0044 14.9656 22.9987 11.9788C22.993 8.99212 22.9796 8.61768 22.9239 7.44463C22.8682 6.27159 22.6819 5.47497 22.4076 4.77558C22.1249 4.05244 21.7475 3.44018 21.1355 2.82968C20.5235 2.21918 19.9092 1.84407 19.1847 1.56511C18.4847 1.29429 17.685 1.10971 16.5141 1.05911C15.3433 1.00851 14.9664 0.995531 11.979 1.00125C8.9916 1.00697 8.6176 1.01973 7.44432 1.07693ZM7.5728 20.9624C6.50029 20.9157 5.91795 20.7375 5.52986 20.5884C5.01594 20.3904 4.64985 20.151 4.26309 19.768C3.87633 19.385 3.63872 19.0176 3.43808 18.5047C3.28738 18.1166 3.10588 17.535 3.05572 16.4625C3.00116 15.3033 2.98972 14.9552 2.98334 12.0184C2.97696 9.08166 2.98818 8.73406 3.039 7.57443C3.08476 6.50281 3.26406 5.91981 3.413 5.53195C3.611 5.01737 3.84949 4.65194 4.23339 4.2654C4.61729 3.87886 4.9836 3.64082 5.49686 3.44018C5.88451 3.28882 6.46619 3.10886 7.53826 3.05782C8.69834 3.00282 9.04594 2.99182 11.9823 2.98544C14.9187 2.97906 15.2672 2.99006 16.4277 3.0411C17.4993 3.08774 18.0825 3.26528 18.47 3.4151C18.9841 3.6131 19.35 3.85092 19.7365 4.23548C20.1231 4.62004 20.3613 4.98503 20.562 5.49939C20.7135 5.88593 20.8935 6.46739 20.9441 7.54011C20.9993 8.70018 21.0119 9.048 21.0171 11.9841C21.0224 14.9203 21.0121 15.269 20.9613 16.4281C20.9144 17.5006 20.7366 18.0832 20.5873 18.4717C20.3893 18.9854 20.1506 19.3517 19.7664 19.7381C19.3823 20.1244 19.0164 20.3624 18.503 20.5631C18.1158 20.7142 17.5334 20.8946 16.4622 20.9456C15.3021 21.0002 14.9545 21.0116 12.0171 21.018C9.0796 21.0244 8.7331 21.0125 7.57302 20.9624M16.5403 6.12089C16.5408 6.38198 16.6186 6.63708 16.764 6.85392C16.9095 7.07076 17.1159 7.2396 17.3573 7.33909C17.5987 7.43859 17.8642 7.46426 18.1202 7.41286C18.3762 7.36147 18.6111 7.23532 18.7954 7.05036C18.9797 6.8654 19.105 6.62995 19.1555 6.37378C19.2059 6.11761 19.1793 5.85223 19.0789 5.61121C18.9785 5.37018 18.8089 5.16434 18.5915 5.01971C18.3742 4.87508 18.1188 4.79816 17.8577 4.79868C17.5077 4.79938 17.1723 4.93907 16.9252 5.18702C16.6782 5.43496 16.5397 5.77088 16.5403 6.12089ZM6.35201 12.011C6.35817 15.1306 8.89172 17.6538 12.0107 17.6478C15.1297 17.6419 17.6546 15.1086 17.6487 11.989C17.6427 8.86936 15.1085 6.34551 11.9891 6.35167C8.86972 6.35783 6.34607 8.8918 6.35201 12.011ZM8.33335 12.007C8.33192 11.2818 8.54557 10.5724 8.94728 9.96865C9.349 9.36486 9.92074 8.89376 10.5902 8.6149C11.2597 8.33605 11.9968 8.26198 12.7084 8.40205C13.4199 8.54212 14.074 8.89005 14.5878 9.40184C15.1016 9.91363 15.4521 10.5663 15.595 11.2773C15.7379 11.9883 15.6668 12.7257 15.3906 13.3962C15.1144 14.0668 14.6455 14.6404 14.0433 15.0445C13.4411 15.4486 12.7326 15.6651 12.0074 15.6665C11.5258 15.6675 11.0488 15.5737 10.6036 15.3903C10.1583 15.2069 9.75351 14.9376 9.41233 14.5978C9.07115 14.258 8.80026 13.8543 8.61513 13.4097C8.43 12.9652 8.33425 12.4886 8.33335 12.007Z" fill="currentColor"></path></svg>