<svg width="24" height="24" viewBox="0 0 24 24" fill="none" xmlns="http://www.w3.org/2000/svg"><path d="M22.54 6.70437C22.2875 5.75802 21.5413 5.01286 20.595 4.7595C18.88 4.29999 12 4.29999 12 4.29999C12 4.29999 5.12 4.29999 3.405 4.7595C2.45875 5.01286 1.7125 5.75802 1.46 6.70437C1 8.42073 1 12 1 12C1 12 1 15.5792 1.46 17.2956C1.7125 18.242 2.45875 18.9871 3.405 19.2405C5.12125 19.7 12 19.7 12 19.7C12 19.7 18.88 19.7 20.595 19.2405C21.5413 18.9871 22.2875 18.242 22.54 17.2956C23 15.5805 23 12 23 12C23 12 23 8.42073 22.54 6.70437ZM9.75 15.2501V8.74984L15.5 12L9.75 15.2501Z" fill="currentColor"></path></svg>